<svg xmlns="http://www.w3.org/2000/svg" width="1000" height="300" viewBox="0 0 1000 300">
<defs>
<filter id="grain" x="0" y="0" width="100%" height="100%"><feTurbulence type="fractalNoise" baseFrequency=".9" numOctaves="2" stitchTiles="stitch"/><feColorMatrix values="0 0 0 0 1  0 0 0 0 .95  0 0 0 0 .85  .09 0 0 0 0"/></filter>
<clipPath id="frame"><rect x="1" y="1" width="998" height="298" rx="18"/></clipPath>
<radialGradient id="vig" cx=".5" cy=".45" r=".75"><stop offset="0" stop-color="#ffc400" stop-opacity=".07"/><stop offset="1" stop-color="#ffc400" stop-opacity="0"/></radialGradient>
<radialGradient id="ir-mint" cx=".42" cy=".38" r=".7"><stop offset="0" stop-color="#E9E1C8"/><stop offset=".55" stop-color="#E9E1C8" stop-opacity=".85"/><stop offset="1" stop-color="#1E3A2F"/></radialGradient><radialGradient id="ir-vault" cx=".42" cy=".38" r=".7"><stop offset="0" stop-color="#D6E2EE"/><stop offset=".55" stop-color="#D6E2EE" stop-opacity=".85"/><stop offset="1" stop-color="#1B2530"/></radialGradient><radialGradient id="ir-chain" cx=".42" cy=".38" r=".7"><stop offset="0" stop-color="#CFE3F5"/><stop offset=".55" stop-color="#CFE3F5" stop-opacity=".85"/><stop offset="1" stop-color="#0F2A44"/></radialGradient><radialGradient id="ir-desk" cx=".42" cy=".38" r=".7"><stop offset="0" stop-color="#7CFF9B"/><stop offset=".55" stop-color="#7CFF9B" stop-opacity=".85"/><stop offset="1" stop-color="#0B2A12"/></radialGradient><radialGradient id="ir-arcade" cx=".42" cy=".38" r=".7"><stop offset="0" stop-color="#FFE14D"/><stop offset=".55" stop-color="#FFE14D" stop-opacity=".85"/><stop offset="1" stop-color="#FF3D8B"/></radialGradient><radialGradient id="ir-room" cx=".42" cy=".38" r=".7"><stop offset="0" stop-color="#F1E4D8"/><stop offset=".55" stop-color="#F1E4D8" stop-opacity=".85"/><stop offset="1" stop-color="#3A2622"/></radialGradient><clipPath id="alm34"><path d="M-17.0 0 Q0 -23.1 17.0 0 Q0 23.1 -17.0 0Z"/></clipPath>
</defs>
<style>.a{transform-box:fill-box;transform-origin:center}.l{transform-box:fill-box;transform-origin:left center}@keyframes pb{0.00%{transform:scaleY(1)}92.00%{transform:scaleY(1)}94.00%{transform:scaleY(.08)}96.00%{transform:scaleY(1)}100.00%{transform:scaleY(1)}}@keyframes press{0.00%{transform:translateY(0)}20.00%{transform:translateY(0)}30.00%{transform:translateY(24px)}38.00%{transform:translateY(24px)}55.00%{transform:translateY(0)}100.00%{transform:translateY(0)}}@keyframes flash{0.00%{opacity:0;transform:scale(.4)}29.00%{opacity:0;transform:scale(.4)}31.00%{opacity:1;transform:scale(1)}45.00%{opacity:0;transform:scale(1.8)}100.00%{opacity:0}}@keyframes card{0.00%{opacity:0;transform:translate(0,0) scale(.7)}7.00%{opacity:0;transform:translate(0,0) scale(.7)}9.00%{opacity:1;transform:translate(0,0) scale(1)}13.00%{opacity:1;transform:translate(0px,0) scale(1)}23.00%{opacity:1;transform:translate(92px,0) scale(1)}38.00%{opacity:1;transform:translate(92px,0) scale(1)}48.00%{opacity:1;transform:translate(184px,0) scale(1)}63.00%{opacity:1;transform:translate(184px,0) scale(1)}73.00%{opacity:1;transform:translate(276px,0) scale(1)}88.00%{opacity:1;transform:translate(276px,0) scale(1)}98.00%{opacity:0;transform:translate(368px,0) scale(1)}100.00%{opacity:0;transform:translate(0,0) scale(.7)}}@keyframes shim{0.00%{transform:translateX(-60px)}60.00%{transform:translateX(260px)}100.00%{transform:translateX(260px)}}</style>
<rect x="1" y="1" width="998" height="298" rx="18" fill="#0d0b09"/>
<rect x="1" y="1" width="998" height="298" rx="18" fill="url(#vig)"/>
<path d="M18 40 V18 H40" stroke="#E9E1C8" stroke-width="2" fill="none" opacity=".7"/>
<path d="M982 260 V282 H960" stroke="#E9E1C8" stroke-width="2" fill="none" opacity=".7"/>
<g transform="translate(70,64)"><g class="a " style="animation:pb 5s infinite"><path d="M-17.0 0 Q0 -23.1 17.0 0 Q0 23.1 -17.0 0Z" fill="#e6ddcf"/><g clip-path="url(#alm34)"><g class="" style=""><circle r="6.5" fill="url(#ir-mint)"/><g class="a " style=""><circle r="2.7" fill="#0d0b09"/></g><circle cx="-1.9" cy="-2.3" r="1.0" fill="#fff" opacity=".85"/></g></g><path d="M-17.0 0 Q0 -23.1 17.0 0 Q0 23.1 -17.0 0Z" fill="none" stroke="#3a332b" stroke-width="2"/></g></g>
<text x="100" y="69" fill="#ffc400" font-family="Consolas,'SFMono-Regular',Menlo,monospace" font-size="12" letter-spacing="3">WORLD I · SMART CONTRACTS</text>
<text x="52" y="142" fill="#ede6da" font-family="Georgia,'Times New Roman',serif" font-size="56">The Mint</text>
<text x="54" y="188" fill="#a89f92" font-family="Consolas,'SFMono-Regular',Menlo,monospace" font-size="13.5">erc-721 factories, royalties,</text>
<text x="54" y="210" fill="#a89f92" font-family="Consolas,'SFMono-Regular',Menlo,monospace" font-size="13.5">reentrancy guards, pull payments.</text>
<text x="54" y="232" fill="#a89f92" font-family="Consolas,'SFMono-Regular',Menlo,monospace" font-size="13.5">nest · $CHAD</text>
<line x1="470" y1="36" x2="470" y2="264" stroke="#2a2520" stroke-width="1.5"/>
<text x="700" y="52" fill="#6b6155" font-family="Consolas,'SFMono-Regular',Menlo,monospace" font-size="10" letter-spacing="2">PRIMARY MINT SPLIT</text><clipPath id="bar"><rect x="700" y="62" width="250" height="10" rx="5"/></clipPath><g clip-path="url(#bar)"><rect x="700" y="62" width="250" height="10" fill="#2a2520"/><rect x="700" y="62" width="237" height="10" fill="#E9E1C8"/><rect x="700" y="62" width="50" height="10" fill="#fff" opacity=".35" style="animation:shim 3s infinite"/></g><text x="700" y="92" fill="#E9E1C8" font-family="Consolas,'SFMono-Regular',Menlo,monospace" font-size="11">95% creator</text><text x="950" y="92" text-anchor="end" fill="#6b6155" font-family="Consolas,'SFMono-Regular',Menlo,monospace" font-size="11">5%</text><line x1="516" y1="226" x2="960" y2="226" stroke="#3a332b" stroke-width="2"/><line x1="528" y1="226" x2="520" y2="234" stroke="#2a2520" stroke-width="1.5"/><line x1="544" y1="226" x2="536" y2="234" stroke="#2a2520" stroke-width="1.5"/><line x1="560" y1="226" x2="552" y2="234" stroke="#2a2520" stroke-width="1.5"/><line x1="576" y1="226" x2="568" y2="234" stroke="#2a2520" stroke-width="1.5"/><line x1="592" y1="226" x2="584" y2="234" stroke="#2a2520" stroke-width="1.5"/><line x1="608" y1="226" x2="600" y2="234" stroke="#2a2520" stroke-width="1.5"/><line x1="624" y1="226" x2="616" y2="234" stroke="#2a2520" stroke-width="1.5"/><line x1="640" y1="226" x2="632" y2="234" stroke="#2a2520" stroke-width="1.5"/><line x1="656" y1="226" x2="648" y2="234" stroke="#2a2520" stroke-width="1.5"/><line x1="672" y1="226" x2="664" y2="234" stroke="#2a2520" stroke-width="1.5"/><line x1="688" y1="226" x2="680" y2="234" stroke="#2a2520" stroke-width="1.5"/><line x1="704" y1="226" x2="696" y2="234" stroke="#2a2520" stroke-width="1.5"/><line x1="720" y1="226" x2="712" y2="234" stroke="#2a2520" stroke-width="1.5"/><line x1="736" y1="226" x2="728" y2="234" stroke="#2a2520" stroke-width="1.5"/><line x1="752" y1="226" x2="744" y2="234" stroke="#2a2520" stroke-width="1.5"/><line x1="768" y1="226" x2="760" y2="234" stroke="#2a2520" stroke-width="1.5"/><line x1="784" y1="226" x2="776" y2="234" stroke="#2a2520" stroke-width="1.5"/><line x1="800" y1="226" x2="792" y2="234" stroke="#2a2520" stroke-width="1.5"/><line x1="816" y1="226" x2="808" y2="234" stroke="#2a2520" stroke-width="1.5"/><line x1="832" y1="226" x2="824" y2="234" stroke="#2a2520" stroke-width="1.5"/><line x1="848" y1="226" x2="840" y2="234" stroke="#2a2520" stroke-width="1.5"/><line x1="864" y1="226" x2="856" y2="234" stroke="#2a2520" stroke-width="1.5"/><line x1="880" y1="226" x2="872" y2="234" stroke="#2a2520" stroke-width="1.5"/><line x1="896" y1="226" x2="888" y2="234" stroke="#2a2520" stroke-width="1.5"/><line x1="912" y1="226" x2="904" y2="234" stroke="#2a2520" stroke-width="1.5"/><line x1="928" y1="226" x2="920" y2="234" stroke="#2a2520" stroke-width="1.5"/><line x1="944" y1="226" x2="936" y2="234" stroke="#2a2520" stroke-width="1.5"/><g transform="translate(528,138)"><g class="a" style="animation:card 24s 0s infinite"><rect width="64" height="86" rx="7" fill="#14110e" stroke="#E9E1C8" stroke-opacity=".55" stroke-width="1.5"/><text x="8" y="15" fill="#6b6155" font-family="Consolas,'SFMono-Regular',Menlo,monospace" font-size="8" letter-spacing="1">ERC-721</text><g transform="translate(32,44)"><g class="a " style=""><path d="M-17.0 0 Q0 -23.1 17.0 0 Q0 23.1 -17.0 0Z" fill="#e6ddcf"/><g clip-path="url(#alm34)"><g class="" style=""><circle r="6.5" fill="url(#ir-desk)"/><g class="a " style=""><circle r="2.7" fill="#0d0b09"/></g><circle cx="-1.9" cy="-2.3" r="1.0" fill="#fff" opacity=".85"/></g></g><path d="M-17.0 0 Q0 -23.1 17.0 0 Q0 23.1 -17.0 0Z" fill="none" stroke="#3a332b" stroke-width="1.5"/></g></g><text x="32" y="78" text-anchor="middle" fill="#a89f92" font-family="Consolas,'SFMono-Regular',Menlo,monospace" font-size="9">0x9f1a</text></g></g><g transform="translate(528,138)"><g class="a" style="animation:card 24s -6s infinite"><rect width="64" height="86" rx="7" fill="#14110e" stroke="#E9E1C8" stroke-opacity=".55" stroke-width="1.5"/><text x="8" y="15" fill="#6b6155" font-family="Consolas,'SFMono-Regular',Menlo,monospace" font-size="8" letter-spacing="1">ERC-721</text><g transform="translate(32,44)"><g class="a " style=""><path d="M-17.0 0 Q0 -23.1 17.0 0 Q0 23.1 -17.0 0Z" fill="#e6ddcf"/><g clip-path="url(#alm34)"><g class="" style=""><circle r="6.5" fill="url(#ir-arcade)"/><g class="a " style=""><circle r="2.7" fill="#0d0b09"/></g><circle cx="-1.9" cy="-2.3" r="1.0" fill="#fff" opacity=".85"/></g></g><path d="M-17.0 0 Q0 -23.1 17.0 0 Q0 23.1 -17.0 0Z" fill="none" stroke="#3a332b" stroke-width="1.5"/></g></g><text x="32" y="78" text-anchor="middle" fill="#a89f92" font-family="Consolas,'SFMono-Regular',Menlo,monospace" font-size="9">0x3c77</text></g></g><g transform="translate(528,138)"><g class="a" style="animation:card 24s -12s infinite"><rect width="64" height="86" rx="7" fill="#14110e" stroke="#E9E1C8" stroke-opacity=".55" stroke-width="1.5"/><text x="8" y="15" fill="#6b6155" font-family="Consolas,'SFMono-Regular',Menlo,monospace" font-size="8" letter-spacing="1">ERC-721</text><g transform="translate(32,44)"><g class="a " style=""><path d="M-17.0 0 Q0 -23.1 17.0 0 Q0 23.1 -17.0 0Z" fill="#e6ddcf"/><g clip-path="url(#alm34)"><g class="" style=""><circle r="6.5" fill="url(#ir-chain)"/><g class="a " style=""><circle r="2.7" fill="#0d0b09"/></g><circle cx="-1.9" cy="-2.3" r="1.0" fill="#fff" opacity=".85"/></g></g><path d="M-17.0 0 Q0 -23.1 17.0 0 Q0 23.1 -17.0 0Z" fill="none" stroke="#3a332b" stroke-width="1.5"/></g></g><text x="32" y="78" text-anchor="middle" fill="#a89f92" font-family="Consolas,'SFMono-Regular',Menlo,monospace" font-size="9">0xa402</text></g></g><g transform="translate(528,138)"><g class="a" style="animation:card 24s -18s infinite"><rect width="64" height="86" rx="7" fill="#14110e" stroke="#E9E1C8" stroke-opacity=".55" stroke-width="1.5"/><text x="8" y="15" fill="#6b6155" font-family="Consolas,'SFMono-Regular',Menlo,monospace" font-size="8" letter-spacing="1">ERC-721</text><g transform="translate(32,44)"><g class="a " style=""><path d="M-17.0 0 Q0 -23.1 17.0 0 Q0 23.1 -17.0 0Z" fill="#e6ddcf"/><g clip-path="url(#alm34)"><g class="" style=""><circle r="6.5" fill="url(#ir-room)"/><g class="a " style=""><circle r="2.7" fill="#0d0b09"/></g><circle cx="-1.9" cy="-2.3" r="1.0" fill="#fff" opacity=".85"/></g></g><path d="M-17.0 0 Q0 -23.1 17.0 0 Q0 23.1 -17.0 0Z" fill="none" stroke="#3a332b" stroke-width="1.5"/></g></g><text x="32" y="78" text-anchor="middle" fill="#a89f92" font-family="Consolas,'SFMono-Regular',Menlo,monospace" font-size="9">0x77e0</text></g></g><rect x="530" y="34" width="60" height="30" rx="4" fill="#14110e" stroke="#3a332b"/><g style="animation:press 6s infinite cubic-bezier(.7,0,.3,1)"><rect x="551" y="64" width="18" height="40" fill="#241f19" stroke="#3a332b"/><rect x="522" y="100" width="76" height="14" rx="3" fill="#2d2720" stroke="#E9E1C8" stroke-opacity=".4"/></g><g transform="translate(560,138)"><g class="a" style="animation:flash 6s infinite"><circle r="16" fill="none" stroke="#ffc400" stroke-width="2"/></g></g><text x="516" y="262" fill="#6b6155" font-family="Consolas,'SFMono-Regular',Menlo,monospace" font-size="11.5">factory.deploy() → <tspan fill="#E9E1C8">mint()</tspan> → pull payments, no reentrancy</text>
<rect x="1" y="1" width="998" height="298" rx="18" fill="#fff" filter="url(#grain)" clip-path="url(#frame)" opacity=".5"/>
<rect x="1" y="1" width="998" height="298" rx="18" fill="none" stroke="#2a2520" stroke-width="2"/>
</svg>